<svg xmlns="http://www.w3.org/2000/svg" width="1320" height="520" viewBox="0 0 1320 520">
<rect width="1320" height="520" fill="#f8fafc"/>
<text x="48" y="44" font-family="Segoe UI, Microsoft YaHei, sans-serif" font-size="30" font-weight="700" fill="#111827">Week 4 ASR Comparison</text>
<text x="48" y="74" font-family="Segoe UI, Microsoft YaHei, sans-serif" font-size="16" font-weight="400" fill="#111827">Measured on the committed smoke benchmark manifest.</text>
<text x="360" y="108" font-family="Segoe UI, Microsoft YaHei, sans-serif" font-size="16" font-weight="700" fill="#111827">WER</text>
<text x="820" y="108" font-family="Segoe UI, Microsoft YaHei, sans-serif" font-size="16" font-weight="700" fill="#111827">RTF</text>
<text x="48" y="152" font-family="Segoe UI, Microsoft YaHei, sans-serif" font-size="18" font-weight="600" fill="#111827">paraformer-zh</text>
<rect x="360" y="130" width="320" height="32" rx="12" fill="#e5e7eb"/>
<rect x="360" y="130" width="0" height="32" rx="12" fill="#ef4444"/>
<text x="376" y="152" font-family="Segoe UI, Microsoft YaHei, sans-serif" font-size="16" font-weight="400" fill="#111827">0.000</text>
<rect x="820" y="130" width="320" height="32" rx="12" fill="#e5e7eb"/>
<rect x="820" y="130" width="320" height="32" rx="12" fill="#2563eb"/>
<text x="1070" y="152" font-family="Segoe UI, Microsoft YaHei, sans-serif" font-size="16" font-weight="400" fill="#111827">0.423</text>
<text x="48" y="222" font-family="Segoe UI, Microsoft YaHei, sans-serif" font-size="18" font-weight="600" fill="#111827">iic/SenseVoiceSmall</text>
<rect x="360" y="200" width="320" height="32" rx="12" fill="#e5e7eb"/>
<rect x="360" y="200" width="320" height="32" rx="12" fill="#ef4444"/>
<text x="610" y="222" font-family="Segoe UI, Microsoft YaHei, sans-serif" font-size="16" font-weight="400" fill="#111827">0.050</text>
<rect x="820" y="200" width="320" height="32" rx="12" fill="#e5e7eb"/>
<rect x="820" y="200" width="26" height="32" rx="12" fill="#2563eb"/>
<text x="862" y="222" font-family="Segoe UI, Microsoft YaHei, sans-serif" font-size="16" font-weight="400" fill="#111827">0.035</text>
</svg>