<svg xmlns="http://www.w3.org/2000/svg" width="1320" height="520" viewBox="0 0 1320 520">
<rect width="1320" height="520" fill="#f8fafc"/>
<text x="48" y="44" font-family="Segoe UI, Microsoft YaHei, sans-serif" font-size="30" font-weight="700" fill="#111827">Sentiment Route Trade-off</text>
<text x="48" y="74" font-family="Segoe UI, Microsoft YaHei, sans-serif" font-size="16" font-weight="400" fill="#111827">Accuracy/F1 versus latency on the manually labeled Week 4 set.</text>
<text x="360" y="108" font-family="Segoe UI, Microsoft YaHei, sans-serif" font-size="16" font-weight="700" fill="#111827">Macro F1</text>
<text x="820" y="108" font-family="Segoe UI, Microsoft YaHei, sans-serif" font-size="16" font-weight="700" fill="#111827">Latency (s)</text>
<text x="48" y="152" font-family="Segoe UI, Microsoft YaHei, sans-serif" font-size="18" font-weight="600" fill="#111827">transformer</text>
<rect x="360" y="130" width="320" height="32" rx="12" fill="#e5e7eb"/>
<rect x="360" y="130" width="216" height="32" rx="12" fill="#16a34a"/>
<text x="592" y="152" font-family="Segoe UI, Microsoft YaHei, sans-serif" font-size="16" font-weight="400" fill="#111827">0.677</text>
<rect x="820" y="130" width="320" height="32" rx="12" fill="#e5e7eb"/>
<rect x="820" y="130" width="11" height="32" rx="12" fill="#dc2626"/>
<text x="847" y="152" font-family="Segoe UI, Microsoft YaHei, sans-serif" font-size="16" font-weight="400" fill="#111827">0.418</text>
<text x="48" y="222" font-family="Segoe UI, Microsoft YaHei, sans-serif" font-size="18" font-weight="600" fill="#111827">llm_deepseek</text>
<rect x="360" y="200" width="320" height="32" rx="12" fill="#e5e7eb"/>
<rect x="360" y="200" width="320" height="32" rx="12" fill="#16a34a"/>
<text x="610" y="222" font-family="Segoe UI, Microsoft YaHei, sans-serif" font-size="16" font-weight="400" fill="#111827">1.000</text>
<rect x="820" y="200" width="320" height="32" rx="12" fill="#e5e7eb"/>
<rect x="820" y="200" width="320" height="32" rx="12" fill="#dc2626"/>
<text x="1070" y="222" font-family="Segoe UI, Microsoft YaHei, sans-serif" font-size="16" font-weight="400" fill="#111827">11.267</text>
</svg>